<svg width="1107" height="841" viewBox="0 0 1107 841" fill="none" xmlns="http://www.w3.org/2000/svg">
<path d="M555.561 774.113C830.254 774.113 1052.94 760.462 1052.94 743.621C1052.94 726.781 830.254 713.129 555.561 713.129C280.868 713.129 58.1847 726.781 58.1847 743.621C58.1847 760.462 280.868 774.113 555.561 774.113Z" fill="#3F3D56"/>
<path opacity="0.1" d="M555.561 763.294C789.539 763.294 979.216 754.266 979.216 743.129C979.216 731.993 789.539 722.965 555.561 722.965C321.583 722.965 131.906 731.993 131.906 743.129C131.906 754.266 321.583 763.294 555.561 763.294Z" fill="black"/>
<path d="M193.35 159.847H931.534V739.187H193.35V159.847Z" fill="white" stroke="#038930"/>
<path d="M554.032 238.656H371.676C371.385 238.657 371.097 238.6 370.828 238.489C370.559 238.378 370.314 238.215 370.108 238.009C369.902 237.804 369.739 237.559 369.627 237.29C369.516 237.021 369.458 236.733 369.458 236.442C369.458 236.151 369.516 235.862 369.627 235.593C369.739 235.324 369.902 235.08 370.108 234.874C370.314 234.668 370.559 234.505 370.828 234.394C371.097 234.283 371.385 234.227 371.676 234.227H554.032C554.618 234.228 555.18 234.462 555.594 234.877C556.008 235.293 556.241 235.855 556.241 236.442C556.241 237.028 556.008 237.591 555.594 238.006C555.18 238.421 554.618 238.655 554.032 238.656V238.656Z" fill="#3F3D56"/>
<path d="M753.65 263.016H466.838C466.251 263.016 465.688 262.783 465.273 262.368C464.858 261.953 464.625 261.389 464.625 260.802C464.625 260.215 464.858 259.651 465.273 259.236C465.688 258.821 466.251 258.587 466.838 258.587H753.65C753.94 258.587 754.228 258.645 754.497 258.756C754.765 258.867 755.009 259.03 755.215 259.236C755.42 259.442 755.583 259.686 755.694 259.954C755.806 260.223 755.863 260.511 755.863 260.802C755.863 261.093 755.806 261.381 755.694 261.649C755.583 261.918 755.42 262.162 755.215 262.368C755.009 262.573 754.765 262.737 754.497 262.848C754.228 262.959 753.94 263.016 753.65 263.016V263.016Z" fill="#3F3D56"/>
<path d="M554.917 287.377H372.561C371.974 287.377 371.411 287.143 370.996 286.728C370.581 286.313 370.348 285.749 370.348 285.162C370.348 284.575 370.581 284.011 370.996 283.596C371.411 283.181 371.974 282.948 372.561 282.948H554.917C555.504 282.948 556.067 283.181 556.482 283.596C556.897 284.011 557.13 284.575 557.13 285.162C557.13 285.749 556.897 286.313 556.482 286.728C556.067 287.143 555.504 287.377 554.917 287.377V287.377Z" fill="#3F3D56"/>
<path d="M753.65 287.82H571.294C570.707 287.82 570.144 287.586 569.729 287.171C569.314 286.756 569.081 286.192 569.081 285.605C569.081 285.018 569.314 284.454 569.729 284.039C570.144 283.624 570.707 283.39 571.294 283.39H753.65C754.237 283.39 754.8 283.624 755.215 284.039C755.63 284.454 755.863 285.018 755.863 285.605C755.863 286.192 755.63 286.756 755.215 287.171C754.8 287.586 754.237 287.82 753.65 287.82V287.82Z" fill="#3F3D56"/>
<path d="M555.36 311.737H373.004C372.417 311.737 371.854 311.504 371.439 311.088C371.024 310.673 370.791 310.11 370.791 309.522C370.791 308.935 371.024 308.372 371.439 307.956C371.854 307.541 372.417 307.308 373.004 307.308H555.36C555.947 307.308 556.51 307.541 556.925 307.956C557.34 308.372 557.573 308.935 557.573 309.522C557.573 310.11 557.34 310.673 556.925 311.088C556.51 311.504 555.947 311.737 555.36 311.737V311.737Z" fill="#3F3D56"/>
<path d="M555.803 336.097H373.447C372.86 336.097 372.297 335.864 371.882 335.448C371.467 335.033 371.234 334.47 371.234 333.882C371.234 333.295 371.467 332.732 371.882 332.317C372.297 331.901 372.86 331.668 373.447 331.668H555.803C556.389 331.668 556.952 331.901 557.367 332.317C557.782 332.732 558.016 333.295 558.016 333.882C558.016 334.47 557.782 335.033 557.367 335.448C556.952 335.864 556.389 336.097 555.803 336.097V336.097Z" fill="#3F3D56"/>
<path d="M638.571 239.099H586.343C585.756 239.099 585.193 238.866 584.778 238.451C584.363 238.035 584.13 237.472 584.13 236.885C584.13 236.297 584.363 235.734 584.778 235.319C585.193 234.903 585.756 234.67 586.343 234.67H638.571C639.158 234.67 639.721 234.903 640.136 235.319C640.551 235.734 640.784 236.297 640.784 236.885C640.784 237.472 640.551 238.035 640.136 238.451C639.721 238.866 639.158 239.099 638.571 239.099V239.099Z" fill="#3F3D56"/>
<path d="M638.571 311.737H586.343C585.756 311.737 585.193 311.504 584.778 311.088C584.363 310.673 584.13 310.11 584.13 309.522C584.13 308.935 584.363 308.372 584.778 307.956C585.193 307.541 585.756 307.308 586.343 307.308H638.571C639.158 307.308 639.721 307.541 640.136 307.956C640.551 308.372 640.784 308.935 640.784 309.522C640.784 310.11 640.551 310.673 640.136 311.088C639.721 311.504 639.158 311.737 638.571 311.737V311.737Z" fill="#3F3D56"/>
<path d="M638.571 335.654H586.343C586.052 335.655 585.763 335.598 585.494 335.487C585.225 335.376 584.981 335.213 584.775 335.007C584.569 334.801 584.405 334.557 584.294 334.288C584.182 334.019 584.125 333.731 584.125 333.44C584.125 333.148 584.182 332.86 584.294 332.591C584.405 332.322 584.569 332.078 584.775 331.872C584.981 331.666 585.225 331.503 585.494 331.392C585.763 331.281 586.052 331.224 586.343 331.225H638.571C638.862 331.224 639.15 331.281 639.419 331.392C639.688 331.503 639.933 331.666 640.139 331.872C640.345 332.078 640.508 332.322 640.62 332.591C640.731 332.86 640.789 333.148 640.789 333.44C640.789 333.731 640.731 334.019 640.62 334.288C640.508 334.557 640.345 334.801 640.139 335.007C639.933 335.213 639.688 335.376 639.419 335.487C639.15 335.598 638.862 335.655 638.571 335.654V335.654Z" fill="#3F3D56"/>
<path d="M726.208 335.654H673.98C673.394 335.653 672.832 335.419 672.418 335.004C672.004 334.589 671.771 334.026 671.771 333.44C671.771 332.853 672.004 332.29 672.418 331.875C672.832 331.46 673.394 331.226 673.98 331.225H726.208C726.499 331.224 726.787 331.281 727.056 331.392C727.325 331.503 727.57 331.666 727.776 331.872C727.982 332.078 728.145 332.322 728.257 332.591C728.368 332.86 728.426 333.148 728.426 333.44C728.426 333.731 728.368 334.019 728.257 334.288C728.145 334.557 727.982 334.801 727.776 335.007C727.57 335.213 727.325 335.376 727.056 335.487C726.787 335.598 726.499 335.655 726.208 335.654V335.654Z" fill="#3F3D56"/>
<path d="M423.462 263.016H371.234C370.647 263.016 370.084 262.783 369.669 262.368C369.254 261.953 369.021 261.389 369.021 260.802C369.021 260.215 369.254 259.651 369.669 259.236C370.084 258.821 370.647 258.587 371.234 258.587H423.462C424.049 258.587 424.612 258.821 425.027 259.236C425.442 259.651 425.675 260.215 425.675 260.802C425.675 261.389 425.442 261.953 425.027 262.368C424.612 262.783 424.049 263.016 423.462 263.016V263.016Z" fill="#3F3D56"/>
<path d="M554.253 597.416H371.897C371.31 597.416 370.748 597.182 370.333 596.767C369.917 596.352 369.684 595.788 369.684 595.201C369.684 594.614 369.917 594.05 370.333 593.635C370.748 593.22 371.31 592.986 371.897 592.986H554.253C554.84 592.986 555.403 593.22 555.818 593.635C556.233 594.05 556.466 594.614 556.466 595.201C556.466 595.788 556.233 596.352 555.818 596.767C555.403 597.182 554.84 597.416 554.253 597.416Z" fill="#3F3D56"/>
<path d="M553.368 646.136H371.012C370.425 646.136 369.862 645.902 369.447 645.487C369.032 645.072 368.799 644.509 368.799 643.921C368.799 643.334 369.032 642.771 369.447 642.355C369.862 641.94 370.425 641.707 371.012 641.707H553.368C553.955 641.707 554.518 641.94 554.933 642.355C555.348 642.771 555.581 643.334 555.581 643.921C555.581 644.509 555.348 645.072 554.933 645.487C554.518 645.902 553.955 646.136 553.368 646.136Z" fill="#3F3D56"/>
<path d="M553.811 670.496H371.455C371.164 670.497 370.875 670.44 370.606 670.329C370.337 670.218 370.093 670.055 369.887 669.849C369.681 669.643 369.517 669.399 369.406 669.13C369.294 668.861 369.237 668.573 369.237 668.282C369.237 667.99 369.294 667.702 369.406 667.433C369.517 667.164 369.681 666.92 369.887 666.714C370.093 666.508 370.337 666.345 370.606 666.234C370.875 666.123 371.164 666.066 371.455 666.067H553.811C554.102 666.066 554.39 666.123 554.659 666.234C554.928 666.345 555.173 666.508 555.379 666.714C555.585 666.92 555.748 667.164 555.86 667.433C555.971 667.702 556.029 667.99 556.029 668.282C556.029 668.573 555.971 668.861 555.86 669.13C555.748 669.399 555.585 669.643 555.379 669.849C555.173 670.055 554.928 670.218 554.659 670.329C554.39 670.44 554.102 670.497 553.811 670.496V670.496Z" fill="#3F3D56"/>
<path d="M631.71 646.579H579.482C578.895 646.579 578.332 646.345 577.917 645.93C577.502 645.515 577.269 644.952 577.269 644.364C577.269 643.777 577.502 643.214 577.917 642.798C578.332 642.383 578.895 642.15 579.482 642.15H631.71C632.297 642.15 632.86 642.383 633.275 642.798C633.69 643.214 633.923 643.777 633.923 644.364C633.923 644.952 633.69 645.515 633.275 645.93C632.86 646.345 632.297 646.579 631.71 646.579Z" fill="#3F3D56"/>
<path d="M631.71 670.496H579.482C578.895 670.496 578.332 670.263 577.917 669.847C577.502 669.432 577.269 668.869 577.269 668.282C577.269 667.694 577.502 667.131 577.917 666.716C578.332 666.3 578.895 666.067 579.482 666.067H631.71C632.297 666.067 632.86 666.3 633.275 666.716C633.69 667.131 633.923 667.694 633.923 668.282C633.923 668.869 633.69 669.432 633.275 669.847C632.86 670.263 632.297 670.496 631.71 670.496V670.496Z" fill="#3F3D56"/>
<path d="M719.348 646.579H667.119C666.532 646.579 665.97 646.345 665.554 645.93C665.139 645.515 664.906 644.952 664.906 644.364C664.906 643.777 665.139 643.214 665.554 642.798C665.97 642.383 666.532 642.15 667.119 642.15H719.348C719.934 642.15 720.497 642.383 720.912 642.798C721.327 643.214 721.561 643.777 721.561 644.364C721.561 644.952 721.327 645.515 720.912 645.93C720.497 646.345 719.934 646.579 719.348 646.579V646.579Z" fill="#3F3D56"/>
<path d="M753.871 621.776H467.059C466.472 621.776 465.909 621.542 465.494 621.127C465.079 620.712 464.846 620.148 464.846 619.561C464.846 618.974 465.079 618.41 465.494 617.995C465.909 617.58 466.472 617.347 467.059 617.347H753.871C754.458 617.347 755.021 617.58 755.436 617.995C755.851 618.41 756.084 618.974 756.084 619.561C756.084 620.148 755.851 620.712 755.436 621.127C755.021 621.542 754.458 621.776 753.871 621.776V621.776Z" fill="#3F3D56"/>
<path d="M423.683 621.776H371.455C370.868 621.776 370.305 621.542 369.89 621.127C369.475 620.712 369.242 620.148 369.242 619.561C369.242 618.974 369.475 618.41 369.89 617.995C370.305 617.58 370.868 617.347 371.455 617.347H423.683C424.27 617.347 424.833 617.58 425.248 617.995C425.663 618.41 425.896 618.974 425.896 619.561C425.896 620.148 425.663 620.712 425.248 621.127C424.833 621.542 424.27 621.776 423.683 621.776V621.776Z" fill="#3F3D56"/>
<path d="M753.871 695.299H467.059C466.768 695.3 466.48 695.243 466.211 695.132C465.942 695.021 465.697 694.858 465.491 694.652C465.285 694.446 465.122 694.202 465.01 693.933C464.899 693.664 464.841 693.376 464.841 693.085C464.841 692.793 464.899 692.505 465.01 692.236C465.122 691.967 465.285 691.723 465.491 691.517C465.697 691.311 465.942 691.148 466.211 691.037C466.48 690.926 466.768 690.869 467.059 690.87H753.871C754.458 690.87 755.021 691.103 755.436 691.519C755.851 691.934 756.084 692.497 756.084 693.085C756.084 693.672 755.851 694.235 755.436 694.651C755.021 695.066 754.458 695.299 753.871 695.299V695.299Z" fill="#3F3D56"/>
<path d="M423.683 695.299H371.455C371.164 695.3 370.875 695.243 370.606 695.132C370.337 695.021 370.093 694.858 369.887 694.652C369.681 694.446 369.517 694.202 369.406 693.933C369.294 693.664 369.237 693.376 369.237 693.085C369.237 692.793 369.294 692.505 369.406 692.236C369.517 691.967 369.681 691.723 369.887 691.517C370.093 691.311 370.337 691.148 370.606 691.037C370.875 690.926 371.164 690.869 371.455 690.87H423.683C423.974 690.869 424.262 690.926 424.531 691.037C424.8 691.148 425.045 691.311 425.251 691.517C425.457 691.723 425.62 691.967 425.732 692.236C425.843 692.505 425.901 692.793 425.901 693.085C425.901 693.376 425.843 693.664 425.732 693.933C425.62 694.202 425.457 694.446 425.251 694.652C425.045 694.858 424.8 695.021 424.531 695.132C424.262 695.243 423.974 695.3 423.683 695.299Z" fill="#3F3D56"/>
<path d="M212.509 182.954C217.395 182.954 221.356 178.991 221.356 174.102C221.356 169.213 217.395 165.249 212.509 165.249C207.623 165.249 203.662 169.213 203.662 174.102C203.662 178.991 207.623 182.954 212.509 182.954Z" fill="#2F2E41"/>
<path d="M236.1 182.954C240.986 182.954 244.947 178.991 244.947 174.102C244.947 169.213 240.986 165.249 236.1 165.249C231.214 165.249 227.253 169.213 227.253 174.102C227.253 178.991 231.214 182.954 236.1 182.954Z" fill="#F86A6A"/>
<path d="M259.691 182.954C264.577 182.954 268.537 178.991 268.537 174.102C268.537 169.213 264.577 165.249 259.691 165.249C254.805 165.249 250.844 169.213 250.844 174.102C250.844 178.991 254.805 182.954 259.691 182.954Z" fill="#038930"/>
<path opacity="0.1" d="M932.034 188.856H192.85V191.807H932.034V188.856Z" fill="black"/>
<path d="M120.532 738.793C117.978 740.215 115.284 741.37 112.493 742.238C107.501 743.603 102.165 743.102 97.1224 744.267C95.0579 744.744 92.8109 745.742 92.1544 747.758C91.6728 749.236 92.1967 750.833 92.6984 752.305C98.2703 768.653 101.629 786.01 110.515 800.818C114.249 807.037 118.884 812.668 124.269 817.527C126.289 819.349 128.578 821.132 131.283 821.418C132.529 821.549 133.788 821.35 134.933 820.839C136.077 820.328 137.067 819.524 137.802 818.508C138.537 817.492 138.991 816.3 139.118 815.053C139.246 813.805 139.042 812.546 138.528 811.402C137.731 809.631 136.25 808.258 135.295 806.567C134.259 804.413 133.651 802.077 133.506 799.691C132.628 792.699 131.783 785.391 134.204 778.774C135.827 774.336 138.806 770.552 141.287 766.53C143.768 762.509 145.83 757.902 145.278 753.208C144.901 750.005 143.34 747.073 141.69 744.302C140.037 741.526 136.771 734.064 133.45 733.138C130.003 732.176 123.538 737.251 120.532 738.793Z" fill="#2F2E41"/>
<path d="M211.391 795.261C211.443 796.843 211.223 798.422 210.74 799.929C209.7 802.676 207.121 804.558 205.789 807.175C203.936 810.815 204.776 815.215 206.004 819.111C206.773 821.554 207.783 824.095 209.849 825.606C211.617 826.702 213.627 827.346 215.702 827.482C233.431 829.937 251.44 828.528 269.33 829.043C272.591 829.136 276.043 829.251 278.89 827.656C281.736 826.061 283.496 822.053 281.56 819.425C279.822 817.066 276.384 817.088 273.458 816.949C265.839 816.562 258.583 813.571 252.902 808.475C251.782 807.517 250.81 806.398 250.019 805.154C249.41 804.05 248.905 802.891 248.51 801.694C246.002 794.896 243.019 788.283 239.582 781.905C238.62 780.12 237.53 778.26 235.742 777.305C234.433 776.71 233.013 776.399 231.575 776.395C227.116 776.105 215.569 774.587 212.121 778.057C208.936 781.263 211.462 791.19 211.391 795.261Z" fill="#2F2E41"/>
<path d="M238.83 399.052C254.56 399.052 267.311 386.292 267.311 370.552C267.311 354.811 254.56 342.051 238.83 342.051C223.1 342.051 210.349 354.811 210.349 370.552C210.349 386.292 223.1 399.052 238.83 399.052Z" fill="#FBBEBE"/>
<path d="M213.111 394.086C211.417 398.624 208.543 402.886 204.362 405.328L243.754 413.369C242.325 407.616 242.137 401.624 243.201 395.793C243.592 394.381 243.673 392.902 243.437 391.456C242.696 388.596 239.479 387.22 236.601 386.563C229.411 384.923 223.054 384.043 216.373 380.866C214.33 384.364 214.616 390.052 213.111 394.086Z" fill="#FBBEBE"/>
<path d="M204.033 394.657C208.271 392.738 212.888 391.804 217.537 391.926C222.187 392.048 226.749 393.221 230.881 395.359C235.931 398.022 240.113 402.042 244.221 406.008C248.008 409.664 252.048 413.85 252.316 419.109C252.447 421.656 251.652 424.148 251.251 426.667C250.53 431.876 251.446 437.182 253.873 441.847C256.3 446.512 260.118 450.306 264.796 452.703C267.925 457.919 268.571 464.239 268.619 470.324C268.801 493.376 261.533 516.712 266.722 539.173C267.94 544.446 269.829 549.554 270.882 554.863C272.245 561.739 272.178 568.81 272.891 575.784C273.664 583.337 275.352 590.767 277.917 597.912C276.203 600.64 272.635 601.686 269.422 601.465C266.209 601.244 263.205 599.849 260.338 598.381C246.455 591.272 233.74 581.898 219.361 575.856C209.848 571.859 199.714 569.369 190.486 564.753C181.257 560.136 172.675 552.81 169.853 542.879C168.633 538.585 168.558 534.061 168.491 529.597C168.211 510.796 167.95 491.79 172.04 473.438C175.646 457.254 182.598 441.771 184.115 425.259C184.608 419.884 184.619 414.131 187.62 409.646C191.862 403.307 201.02 401.665 204.033 394.657Z" fill="#2F2E41"/>
<path d="M222.632 370.954C224.31 368.764 227.547 368.465 230.228 369.113C232.909 369.761 235.381 371.144 238.089 371.669C238.704 371.844 239.349 371.888 239.983 371.799C240.617 371.71 241.225 371.49 241.768 371.152C242.715 370.219 243.281 368.967 243.356 367.64C244.305 361.993 244.526 356.248 244.016 350.544C243.875 349.744 243.928 348.922 244.172 348.147C244.842 346.53 246.887 346.145 248.558 345.627C251.314 344.695 253.681 342.87 255.285 340.442C256.889 338.014 257.64 335.12 257.417 332.217C257.375 330.825 256.791 329.504 255.789 328.538C254.633 327.596 253.016 327.538 251.526 327.526C243.87 327.464 236.214 327.466 228.558 327.531C225.724 327.556 222.748 327.625 220.292 329.039C218.476 330.084 217.125 331.767 215.495 333.083C211.242 336.517 205.49 337.216 200.317 338.976C197.791 339.696 195.498 341.064 193.664 342.945C191.944 344.912 191.117 347.837 192.197 350.217C192.752 351.209 193.372 352.163 194.052 353.073C197.104 357.956 195.072 364.29 195.528 370.031C196.097 377.2 206.699 388.829 213.888 390.526C225.495 393.265 218.789 375.66 222.632 370.954Z" fill="#2F2E41"/>
<path d="M206.553 685.275C207.285 690.51 208.225 695.762 207.974 701.042C207.623 708.413 204.967 715.515 204.475 722.878C204.109 728.377 204.957 733.936 204.194 739.394C203.705 742.889 202.566 746.258 201.861 749.716C200.744 755.351 200.776 761.153 201.954 766.776C203.131 772.398 205.431 777.725 208.715 782.437C209.198 783.243 209.884 783.908 210.704 784.366C211.491 784.657 212.334 784.769 213.169 784.692C221.459 784.523 229.726 783.771 237.911 782.442C238.51 782.417 239.077 782.167 239.499 781.741C239.684 781.458 239.802 781.137 239.844 780.802C241.362 772.996 237.901 765.169 237.021 757.266C236.082 748.826 238.105 740.37 240.114 732.119C241.025 728.05 242.162 724.034 243.522 720.092C244.493 717.439 245.665 714.858 246.507 712.161C247.699 707.924 248.425 703.569 248.671 699.175C249.256 692.24 249.565 685.289 249.6 678.323C249.799 671.721 249.249 665.119 247.963 658.641C246.117 650.439 242.337 642.823 238.59 635.299C236.586 635.779 234.705 636.674 233.068 637.925C228.239 641.055 223.197 643.842 217.979 646.267C214.474 647.897 207.637 649.054 205.412 652.45C203.218 655.799 204.633 662.631 204.801 666.325C205.089 672.664 205.673 678.981 206.553 685.275Z" fill="#2F2E41"/>
<path opacity="0.1" d="M206.553 685.275C207.285 690.51 208.225 695.762 207.974 701.042C207.623 708.413 204.967 715.515 204.475 722.878C204.109 728.377 204.957 733.936 204.194 739.394C203.705 742.889 202.566 746.258 201.861 749.716C200.744 755.351 200.776 761.153 201.954 766.776C203.131 772.398 205.431 777.725 208.715 782.437C209.198 783.243 209.884 783.908 210.704 784.366C211.491 784.657 212.334 784.769 213.169 784.692C221.459 784.523 229.726 783.771 237.911 782.442C238.51 782.417 239.077 782.167 239.499 781.741C239.684 781.458 239.802 781.137 239.844 780.802C241.362 772.996 237.901 765.169 237.021 757.266C236.082 748.826 238.105 740.37 240.114 732.119C241.025 728.05 242.162 724.034 243.522 720.092C244.493 717.439 245.665 714.858 246.507 712.161C247.699 707.924 248.425 703.569 248.671 699.175C249.256 692.24 249.565 685.289 249.6 678.323C249.799 671.721 249.249 665.119 247.963 658.641C246.117 650.439 242.337 642.823 238.59 635.299C236.586 635.779 234.705 636.674 233.068 637.925C228.239 641.055 223.197 643.842 217.979 646.267C214.474 647.897 207.637 649.054 205.412 652.45C203.218 655.799 204.633 662.631 204.801 666.325C205.089 672.664 205.673 678.981 206.553 685.275Z" fill="black"/>
<path d="M168.047 573.471C164.265 583.661 169.825 594.672 174.655 604.409C186.555 628.395 194.818 653.991 203.037 679.476C203.653 681.385 204.268 683.468 203.582 685.353C202.989 686.692 202.027 687.834 200.808 688.645C195.141 692.952 187.925 694.486 181.174 696.74C174.65 698.919 168.401 701.85 162.554 705.474C157.662 708.508 153.079 712.01 148.506 715.505L133.946 726.632C133.003 727.27 132.18 728.068 131.512 728.99C130.108 731.194 130.683 734.072 131.383 736.591C133.234 743.261 135.618 749.771 138.511 756.059C138.987 757.438 139.893 758.626 141.096 759.449C143.369 760.671 146.148 759.051 147.884 757.141C149.619 755.23 151.12 752.853 153.566 752.033C156.01 751.214 158.699 752.206 161.251 751.847C165.378 751.268 168.118 747.463 171.093 744.543C183.247 732.61 203.54 733.476 216.911 722.925C218.844 721.194 220.89 719.595 223.036 718.137C225.296 716.8 227.859 716.066 230.204 714.885C237.337 711.29 241.822 703.86 244.224 696.238C246.626 688.617 247.311 680.571 249.037 672.768C249.93 668.735 251.104 664.744 251.501 660.632C251.757 656.807 251.673 652.967 251.253 649.157L246.428 589.436C246.035 584.573 245.642 579.705 244.879 574.887C230.551 575.4 216.233 575.976 201.897 576.146C190.489 576.281 178.871 577.079 168.047 573.471Z" fill="#2F2E41"/>
<path d="M162.78 587.442C164.724 590.57 169.455 590.505 172.712 588.79C175.97 587.075 178.501 584.194 181.766 582.494C186.154 580.209 191.346 580.295 196.29 580.435C204.118 580.656 212.042 580.892 219.574 583.038C227.363 585.259 234.947 589.533 243.001 588.681C244.403 588.532 245.936 588.13 246.698 586.944C247.145 586.085 247.356 585.122 247.307 584.155L247.571 577.113C247.732 575.895 247.538 574.656 247.011 573.547C246.335 572.624 245.408 571.914 244.341 571.502C232.876 565.948 219.802 564.914 207.072 564.477C200.601 564.256 194.128 564.164 187.651 564.204C182.156 564.237 175.558 563.442 170.215 564.911C163.044 566.883 159.142 581.587 162.78 587.442Z" fill="#2F2E41"/>
<path d="M234.769 403.017C219.747 402.883 206.134 392.961 191.114 392.72C189.299 392.594 187.481 392.908 185.813 393.635C183.72 394.69 182.344 396.73 180.754 398.453C176.313 403.266 169.881 405.835 165.319 410.533C161.04 414.938 158.661 421.5 160.35 427.405C162.039 433.31 168.414 437.84 174.386 436.42C176.792 428.627 181.758 421.875 188.478 417.26C191.975 415.015 195.661 413.08 199.493 411.474C206.244 408.413 213.793 405.294 220.84 407.589C223.44 408.571 225.891 409.908 228.123 411.563L239.874 419.461C238.504 414.057 237.273 407.997 234.769 403.017Z" fill="#038930"/>
<path d="M172.656 431.196C170.661 433.686 173.534 437.294 173.095 440.455C172.802 442.555 171.075 444.159 170.356 446.153C169.611 448.219 170.006 450.508 169.724 452.686C169.44 454.27 169.021 455.826 168.47 457.338C167.205 461.854 166.321 466.469 165.83 471.134L163.2 490.783C162.744 493.74 162.466 496.721 162.369 499.712C162.501 501.947 162.352 504.19 161.924 506.387C161.342 508.535 160.053 510.413 159.186 512.462C158.318 514.51 157.916 516.988 159.088 518.879C155.164 522.149 153.998 528.572 156.741 532.881C157.264 533.553 157.672 534.305 157.95 535.109C158.102 536.233 157.917 537.377 157.418 538.395L154.759 545.484C154.079 547.298 153.864 550.061 155.756 550.475C154.188 552.103 152.967 554.033 152.166 556.147C151.778 557.209 151.662 558.351 151.829 559.469C151.996 560.587 152.441 561.645 153.122 562.546C153.783 563.126 154.345 563.809 154.788 564.569C155.048 565.627 154.981 566.739 154.595 567.759C154.198 569.307 154.121 570.92 154.37 572.499C154.619 574.078 155.189 575.589 156.043 576.939C156.929 578.272 158.183 579.317 159.653 579.947C161.122 580.577 162.743 580.766 164.318 580.489C169.636 579.289 174.415 577.394 179.778 578.378C191.324 580.498 202.907 582.627 214.089 586.2C226.852 590.278 239.21 596.257 252.548 597.512C253.426 597.692 254.338 597.55 255.12 597.112C255.8 596.467 256.222 595.598 256.309 594.665C257.684 588.217 259.058 581.77 260.432 575.322C262.093 568.175 263.358 560.942 264.222 553.655C264.691 548.952 264.825 544.223 264.958 539.499L266.021 501.893C266.518 496.351 265.78 490.768 263.858 485.546L257.746 466.023C254.259 454.881 246.258 445.001 243.409 433.68C241.606 426.514 240.275 418.824 235.44 413.239C228.547 405.276 216.621 404.038 206.183 405.407C201.468 406.025 196.712 407.093 192.633 409.54C187.916 412.37 184.442 416.827 181.08 421.182C178.31 424.772 175.49 427.657 172.656 431.196Z" fill="#038930"/>
<path d="M197.028 541.804C197.888 545.515 199.694 548.936 200.8 552.582C202.652 558.689 202.495 565.266 204.343 571.374C205.119 573.938 206.243 576.4 206.8 579.02C208.099 585.129 206.203 591.448 203.848 597.232C201.493 603.016 198.625 608.719 197.861 614.918C197.322 619.283 198.096 624.213 201.458 627.046C204.95 629.988 210.023 629.788 214.57 629.397C216.202 629.351 217.814 629.016 219.329 628.405C222.806 626.759 224.271 622.641 225.084 618.879C227.808 606.27 227.029 593.2 226.238 580.324L224.168 546.65C223.769 540.168 223.342 533.55 221.346 527.326C220.619 525.061 219.354 520.486 217.287 519.04C215.24 517.608 209.394 517.544 206.859 517.425C194.967 516.866 195.101 533.475 197.028 541.804Z" fill="#FBBEBE"/>
<path d="M210.204 417.474C207.775 416.201 204.715 416.75 202.368 418.167C200.101 419.72 198.116 421.649 196.497 423.87C191.25 430.28 185.694 437.636 186.472 445.885C186.764 448.979 187.948 451.906 188.75 454.908C192.269 468.068 188.378 481.987 188.824 495.603C189.082 503.471 190.793 511.21 192.497 518.895C192.845 520.463 193.402 522.279 194.918 522.807C196.057 523.204 197.287 522.694 198.414 522.265C202.614 520.712 207.126 520.193 211.568 520.754C216.01 521.314 220.252 522.936 223.935 525.483C226.751 523.98 225.696 519.225 225.065 516.094C223.189 506.791 225.735 497.194 228.828 488.223C231.92 479.251 235.621 470.291 236.133 460.814C236.713 450.077 233.156 439.597 229.646 429.434C228.879 427.215 228.042 424.889 226.266 423.357C224.745 422.225 223.002 421.428 221.151 421.018C217.423 419.916 213.648 419.279 210.204 417.474Z" fill="#2F2E41"/>
<path d="M377.64 487V419.8H387.24V480.28H415.08V487H377.64ZM436.223 487.96C431.231 487.96 427.327 486.648 424.511 484.024C421.759 481.336 420.383 477.688 420.383 473.08C420.383 468.536 422.015 465.016 425.279 462.52C428.607 459.96 433.855 458.68 441.023 458.68H448.703V456.28C448.703 452.504 447.807 449.656 446.015 447.736C444.287 445.752 441.823 444.76 438.623 444.76C436.319 444.76 433.823 445.496 431.135 446.968C429.791 447.736 428.767 448.44 428.062 449.08H427.103L423.743 443.32C425.023 442.36 426.463 441.496 428.062 440.728C431.519 438.936 435.359 438.04 439.583 438.04C443.231 438.04 446.463 438.84 449.279 440.44C452.095 441.976 454.303 444.152 455.903 446.968C457.503 449.72 458.303 452.824 458.303 456.28V487H451.583L450.623 481.24H450.143C449.247 482.52 448.127 483.64 446.783 484.6C443.967 486.84 440.447 487.96 436.223 487.96ZM438.623 480.76C440.991 480.76 443.391 479.8 445.823 477.88C446.911 476.984 447.871 476.024 448.703 475V465.4H441.023C437.375 465.4 434.623 466.104 432.767 467.512C430.911 468.92 429.983 470.776 429.983 473.08C429.983 475.576 430.687 477.496 432.095 478.84C433.567 480.12 435.743 480.76 438.623 480.76ZM472.2 439H478.92L479.88 444.76H480.36C481 443.8 482.088 442.68 483.624 441.4C486.632 439.16 490.024 438.04 493.8 438.04C495.464 438.04 496.936 438.2 498.216 438.52L500.04 439L498.6 446.68H497.64C497.192 446.616 496.52 446.456 495.624 446.2C494.216 445.88 492.808 445.72 491.4 445.72C489.288 445.72 487.016 446.68 484.584 448.6C483.752 449.304 482.824 450.264 481.8 451.48V487H472.2V439ZM520.223 487.96C515.231 487.96 511.327 486.648 508.511 484.024C505.759 481.336 504.383 477.688 504.383 473.08C504.383 468.536 506.015 465.016 509.279 462.52C512.607 459.96 517.855 458.68 525.023 458.68H532.703V456.28C532.703 452.504 531.807 449.656 530.015 447.736C528.287 445.752 525.823 444.76 522.623 444.76C520.319 444.76 517.823 445.496 515.135 446.968C513.791 447.736 512.767 448.44 512.062 449.08H511.103L507.743 443.32C509.023 442.36 510.463 441.496 512.062 440.728C515.519 438.936 519.359 438.04 523.583 438.04C527.231 438.04 530.463 438.84 533.279 440.44C536.095 441.976 538.303 444.152 539.903 446.968C541.503 449.72 542.303 452.824 542.303 456.28V487H535.583L534.623 481.24H534.143C533.247 482.52 532.127 483.64 530.783 484.6C527.967 486.84 524.447 487.96 520.223 487.96ZM522.623 480.76C524.991 480.76 527.391 479.8 529.823 477.88C530.911 476.984 531.871 476.024 532.703 475V465.4H525.023C521.375 465.4 518.623 466.104 516.767 467.512C514.911 468.92 513.983 470.776 513.983 473.08C513.983 475.576 514.687 477.496 516.095 478.84C517.567 480.12 519.743 480.76 522.623 480.76ZM551.4 439H560.04L570.12 470.68C570.376 471.384 570.568 472.216 570.696 473.176C570.888 474.072 571.016 474.712 571.08 475.096L571.368 477.4H571.752L572.04 475.096C572.104 474.712 572.2 474.072 572.328 473.176C572.52 472.216 572.744 471.384 573 470.68L583.08 439H591.048L575.688 487H566.76L551.4 439ZM620.014 487.96C613.358 487.96 608.174 485.848 604.462 481.624C600.75 477.4 598.894 471.192 598.894 463C598.894 454.872 600.686 448.696 604.27 444.472C607.854 440.184 612.622 438.04 618.574 438.04C624.526 438.04 629.294 440.184 632.878 444.472C636.462 448.696 638.254 454.872 638.254 463V464.44L636.334 466.36H608.494C608.494 471.288 609.582 475 611.758 477.496C613.934 479.992 617.006 481.24 620.974 481.24C623.342 481.24 625.806 480.536 628.366 479.128C629.71 478.36 630.766 477.624 631.534 476.92H632.494L635.854 482.68C634.702 483.64 633.262 484.536 631.534 485.368C628.206 487.096 624.366 487.96 620.014 487.96ZM628.654 459.64C628.654 454.584 627.726 450.84 625.87 448.408C624.078 445.976 621.646 444.76 618.574 444.76C615.502 444.76 613.038 445.976 611.182 448.408C609.39 450.84 608.494 454.584 608.494 459.64H628.654ZM649.763 487V422.68L652.643 419.8H659.363V487H649.763Z" fill="#F86A6A"/>
<path d="M712.646 487V426.52H695.366V419.8H739.526V426.52H722.246V487H712.646ZM743.888 439H750.608L751.568 444.76H752.048C752.688 443.8 753.776 442.68 755.312 441.4C758.32 439.16 761.712 438.04 765.488 438.04C767.152 438.04 768.624 438.2 769.904 438.52L771.728 439L770.288 446.68H769.328C768.88 446.616 768.208 446.456 767.312 446.2C765.904 445.88 764.496 445.72 763.088 445.72C760.976 445.72 758.704 446.68 756.272 448.6C755.44 449.304 754.512 450.264 753.488 451.48V487H743.888V439ZM783.75 431.32C782.086 431.32 780.71 430.776 779.622 429.688C778.534 428.6 777.99 427.224 777.99 425.56C777.99 423.896 778.534 422.52 779.622 421.432C780.71 420.344 782.086 419.8 783.75 419.8C785.414 419.8 786.79 420.344 787.878 421.432C788.966 422.52 789.51 423.896 789.51 425.56C789.51 427.224 788.966 428.6 787.878 429.688C786.79 430.776 785.414 431.32 783.75 431.32ZM778.95 487V439H788.55V487H778.95ZM812.07 462.52L797.67 439H808.23L815.91 452.44C816.486 453.592 816.87 454.424 817.062 454.936L817.638 456.28H818.022L818.598 454.936C818.982 453.848 819.366 453.016 819.75 452.44L827.43 439H837.99L823.59 462.52L838.47 487H827.91L819.75 473.08C819.046 471.864 818.63 471.032 818.502 470.584C818.246 469.88 818.086 469.432 818.022 469.24H817.638C817.574 469.432 817.414 469.88 817.158 470.584C817.03 470.968 816.614 471.8 815.91 473.08L807.75 487H797.19L812.07 462.52Z" fill="#038930"/>
</svg>
